<svg width="56" height="29" viewBox="0 0 56 29" fill="none" xmlns="http://www.w3.org/2000/svg">
<path d="M0.8 22V0.64H3.2V22H0.8ZM18.9559 20.14C17.5559 21.62 15.7559 22.36 13.5559 22.36C11.3559 22.36 9.55586 21.62 8.15586 20.14C6.75586 18.66 6.05586 16.7 6.05586 14.26C6.05586 11.82 6.75586 9.86 8.15586 8.38C9.55586 6.9 11.3559 6.16 13.5559 6.16C15.7559 6.16 17.5559 6.9 18.9559 8.38C20.3559 9.86 21.0559 11.82 21.0559 14.26C21.0559 16.7 20.3559 18.66 18.9559 20.14ZM9.92586 18.64C10.8259 19.68 12.0359 20.2 13.5559 20.2C15.0759 20.2 16.2859 19.68 17.1859 18.64C18.0859 17.58 18.5359 16.12 18.5359 14.26C18.5359 12.4 18.0859 10.95 17.1859 9.91C16.2859 8.85 15.0759 8.32 13.5559 8.32C12.0359 8.32 10.8259 8.85 9.92586 9.91C9.02586 10.95 8.57586 12.4 8.57586 14.26C8.57586 16.12 9.02586 17.58 9.92586 18.64ZM35.6752 6.52H37.9552V21.4C37.9552 23.48 37.3452 25.14 36.1252 26.38C34.9052 27.62 33.1152 28.24 30.7552 28.24C28.8152 28.24 27.2652 27.79 26.1052 26.89C24.9652 26.01 24.3152 24.8 24.1552 23.26H26.5552C26.8552 25.22 28.2552 26.2 30.7552 26.2C33.9552 26.2 35.5552 24.6 35.5552 21.4V19.9C34.3152 21.54 32.5852 22.36 30.3652 22.36C28.1852 22.36 26.4352 21.63 25.1152 20.17C23.8152 18.69 23.1652 16.72 23.1652 14.26C23.1652 11.8 23.8152 9.84 25.1152 8.38C26.4352 6.9 28.1852 6.16 30.3652 6.16C32.6652 6.16 34.4352 7.03 35.6752 8.77V6.52ZM30.6652 20.2C32.1852 20.2 33.3952 19.68 34.2952 18.64C35.1952 17.58 35.6452 16.12 35.6452 14.26C35.6452 12.4 35.1952 10.95 34.2952 9.91C33.3952 8.85 32.1852 8.32 30.6652 8.32C29.1652 8.32 27.9552 8.86 27.0352 9.94C26.1352 11.02 25.6852 12.46 25.6852 14.26C25.6852 16.06 26.1352 17.5 27.0352 18.58C27.9552 19.66 29.1652 20.2 30.6652 20.2ZM53.702 20.14C52.302 21.62 50.502 22.36 48.302 22.36C46.102 22.36 44.302 21.62 42.902 20.14C41.502 18.66 40.802 16.7 40.802 14.26C40.802 11.82 41.502 9.86 42.902 8.38C44.302 6.9 46.102 6.16 48.302 6.16C50.502 6.16 52.302 6.9 53.702 8.38C55.102 9.86 55.802 11.82 55.802 14.26C55.802 16.7 55.102 18.66 53.702 20.14ZM44.672 18.64C45.572 19.68 46.782 20.2 48.302 20.2C49.822 20.2 51.032 19.68 51.932 18.64C52.832 17.58 53.282 16.12 53.282 14.26C53.282 12.4 52.832 10.95 51.932 9.91C51.032 8.85 49.822 8.32 48.302 8.32C46.782 8.32 45.572 8.85 44.672 9.91C43.772 10.95 43.322 12.4 43.322 14.26C43.322 16.12 43.772 17.58 44.672 18.64Z" fill="#231F20"/>
</svg>
