<svg width="58" height="29" viewBox="0 0 58 29" fill="none" xmlns="http://www.w3.org/2000/svg">
<path d="M2.81534 0.181818V22H0.301136V0.181818H2.81534ZM14.068 22.3409C12.5907 22.3409 11.2946 21.9893 10.1795 21.2862C9.07156 20.5831 8.20508 19.5994 7.58008 18.3352C6.96218 17.071 6.65323 15.5937 6.65323 13.9034C6.65323 12.1989 6.96218 10.7109 7.58008 9.43963C8.20508 8.16832 9.07156 7.18111 10.1795 6.47798C11.2946 5.77486 12.5907 5.4233 14.068 5.4233C15.5453 5.4233 16.8379 5.77486 17.9458 6.47798C19.0609 7.18111 19.9274 8.16832 20.5453 9.43963C21.1703 10.7109 21.4828 12.1989 21.4828 13.9034C21.4828 15.5937 21.1703 17.071 20.5453 18.3352C19.9274 19.5994 19.0609 20.5831 17.9458 21.2862C16.8379 21.9893 15.5453 22.3409 14.068 22.3409ZM14.068 20.0824C15.1902 20.0824 16.1135 19.7947 16.8379 19.2195C17.5623 18.6442 18.0985 17.8878 18.4466 16.9503C18.7946 16.0128 18.9686 14.9972 18.9686 13.9034C18.9686 12.8097 18.7946 11.7905 18.4466 10.8459C18.0985 9.90128 17.5623 9.13778 16.8379 8.5554C16.1135 7.97301 15.1902 7.68182 14.068 7.68182C12.9458 7.68182 12.0225 7.97301 11.2981 8.5554C10.5737 9.13778 10.0375 9.90128 9.68945 10.8459C9.34144 11.7905 9.16744 12.8097 9.16744 13.9034C9.16744 14.9972 9.34144 16.0128 9.68945 16.9503C10.0375 17.8878 10.5737 18.6442 11.2981 19.2195C12.0225 19.7947 12.9458 20.0824 14.068 20.0824ZM31.9258 28.4773C30.7113 28.4773 29.6673 28.321 28.7937 28.0085C27.9201 27.7031 27.1921 27.2983 26.6097 26.794C26.0344 26.2969 25.5763 25.7642 25.2354 25.196L27.2383 23.7898C27.4656 24.0881 27.7532 24.429 28.1012 24.8125C28.4492 25.2031 28.9251 25.5405 29.5288 25.8246C30.1396 26.1158 30.9386 26.2614 31.9258 26.2614C33.2468 26.2614 34.337 25.9418 35.1964 25.3026C36.0558 24.6634 36.4854 23.6619 36.4854 22.2983V18.9744H36.2724C36.0877 19.2727 35.8249 19.642 35.484 20.0824C35.1502 20.5156 34.6673 20.9027 34.0352 21.2436C33.4102 21.5774 32.565 21.7443 31.4996 21.7443C30.1786 21.7443 28.9925 21.4318 27.9414 20.8068C26.8974 20.1818 26.07 19.2727 25.4592 18.0795C24.8555 16.8864 24.5536 15.4375 24.5536 13.733C24.5536 12.0568 24.8484 10.5973 25.4379 9.3544C26.0273 8.1044 26.8477 7.13849 27.8988 6.45668C28.9499 5.76776 30.1644 5.4233 31.5423 5.4233C32.6076 5.4233 33.4528 5.60085 34.0778 5.95597C34.7099 6.30398 35.1928 6.7017 35.5266 7.14915C35.8675 7.58949 36.1303 7.9517 36.315 8.23579H36.5707V5.63636H38.9996V22.4688C38.9996 23.875 38.68 25.0185 38.0408 25.8991C37.4087 26.7869 36.5565 27.4368 35.484 27.8487C34.4187 28.2678 33.2326 28.4773 31.9258 28.4773ZM31.8406 19.4858C32.8491 19.4858 33.7013 19.255 34.3974 18.7933C35.0934 18.3317 35.6225 17.6676 35.9847 16.8011C36.3469 15.9347 36.5281 14.8977 36.5281 13.6903C36.5281 12.5114 36.3505 11.4709 35.9954 10.5689C35.6403 9.6669 35.1147 8.96023 34.4187 8.44886C33.7227 7.9375 32.8633 7.68182 31.8406 7.68182C30.7752 7.68182 29.8874 7.9517 29.1772 8.49148C28.4741 9.03125 27.945 9.75568 27.5898 10.6648C27.2418 11.5739 27.0678 12.5824 27.0678 13.6903C27.0678 14.8267 27.2454 15.8317 27.6005 16.7053C27.9627 17.5717 28.4954 18.2536 29.1985 18.7507C29.9087 19.2408 30.7894 19.4858 31.8406 19.4858ZM50.2496 22.3409C48.7724 22.3409 47.4762 21.9893 46.3612 21.2862C45.2532 20.5831 44.3867 19.5994 43.7617 18.3352C43.1438 17.071 42.8349 15.5937 42.8349 13.9034C42.8349 12.1989 43.1438 10.7109 43.7617 9.43963C44.3867 8.16832 45.2532 7.18111 46.3612 6.47798C47.4762 5.77486 48.7724 5.4233 50.2496 5.4233C51.7269 5.4233 53.0195 5.77486 54.1275 6.47798C55.2425 7.18111 56.109 8.16832 56.7269 9.43963C57.3519 10.7109 57.6644 12.1989 57.6644 13.9034C57.6644 15.5937 57.3519 17.071 56.7269 18.3352C56.109 19.5994 55.2425 20.5831 54.1275 21.2862C53.0195 21.9893 51.7269 22.3409 50.2496 22.3409ZM50.2496 20.0824C51.3718 20.0824 52.2951 19.7947 53.0195 19.2195C53.744 18.6442 54.2802 17.8878 54.6282 16.9503C54.9762 16.0128 55.1502 14.9972 55.1502 13.9034C55.1502 12.8097 54.9762 11.7905 54.6282 10.8459C54.2802 9.90128 53.744 9.13778 53.0195 8.5554C52.2951 7.97301 51.3718 7.68182 50.2496 7.68182C49.1275 7.68182 48.2042 7.97301 47.4798 8.5554C46.7553 9.13778 46.2191 9.90128 45.8711 10.8459C45.5231 11.7905 45.3491 12.8097 45.3491 13.9034C45.3491 14.9972 45.5231 16.0128 45.8711 16.9503C46.2191 17.8878 46.7553 18.6442 47.4798 19.2195C48.2042 19.7947 49.1275 20.0824 50.2496 20.0824Z" fill="#231F20"/>
</svg>
