<svg width="59" height="29" viewBox="0 0 59 29" fill="none" xmlns="http://www.w3.org/2000/svg">
<path d="M3.3267 0.181818V22H0.141335V0.181818H3.3267ZM14.5048 22.3303C12.9707 22.3303 11.6319 21.9787 10.4885 21.2756C9.34499 20.5724 8.45721 19.5888 7.82511 18.3246C7.193 17.0604 6.87695 15.5831 6.87695 13.8928C6.87695 12.1953 7.193 10.7109 7.82511 9.43963C8.45721 8.16832 9.34499 7.18111 10.4885 6.47798C11.6319 5.77486 12.9707 5.4233 14.5048 5.4233C16.0389 5.4233 17.3777 5.77486 18.5211 6.47798C19.6646 7.18111 20.5524 8.16832 21.1845 9.43963C21.8166 10.7109 22.1326 12.1953 22.1326 13.8928C22.1326 15.5831 21.8166 17.0604 21.1845 18.3246C20.5524 19.5888 19.6646 20.5724 18.5211 21.2756C17.3777 21.9787 16.0389 22.3303 14.5048 22.3303ZM14.5154 19.6562C15.5098 19.6562 16.3336 19.3935 16.987 18.8679C17.6404 18.3423 18.1234 17.6428 18.4359 16.7692C18.7555 15.8956 18.9153 14.9332 18.9153 13.8821C18.9153 12.8381 18.7555 11.8793 18.4359 11.0057C18.1234 10.125 17.6404 9.41832 16.987 8.88565C16.3336 8.35298 15.5098 8.08665 14.5154 8.08665C13.514 8.08665 12.6831 8.35298 12.0225 8.88565C11.3691 9.41832 10.8826 10.125 10.563 11.0057C10.2505 11.8793 10.0943 12.8381 10.0943 13.8821C10.0943 14.9332 10.2505 15.8956 10.563 16.7692C10.8826 17.6428 11.3691 18.3423 12.0225 18.8679C12.6831 19.3935 13.514 19.6562 14.5154 19.6562ZM32.549 28.4773C31.2493 28.4773 30.1307 28.3068 29.1932 27.9659C28.2628 27.625 27.5028 27.174 26.9134 26.6129C26.3239 26.0518 25.8835 25.4375 25.5923 24.7699L28.3303 23.6406C28.522 23.9531 28.7777 24.2834 29.0973 24.6314C29.424 24.9865 29.8643 25.2884 30.4183 25.5369C30.9794 25.7855 31.7003 25.9098 32.581 25.9098C33.7884 25.9098 34.7862 25.6151 35.5746 25.0256C36.3629 24.4432 36.7571 23.5128 36.7571 22.2344V19.017H36.5547C36.3629 19.3651 36.0859 19.7521 35.7237 20.1783C35.3686 20.6044 34.8786 20.9737 34.2536 21.2862C33.6286 21.5987 32.8153 21.755 31.8139 21.755C30.5213 21.755 29.3565 21.4531 28.3196 20.8494C27.2898 20.2386 26.473 19.3402 25.8693 18.1541C25.2727 16.9609 24.9744 15.4943 24.9744 13.7543C24.9744 12.0142 25.2692 10.5227 25.8587 9.27983C26.4553 8.03693 27.272 7.08523 28.3089 6.42472C29.3459 5.7571 30.5213 5.4233 31.8352 5.4233C32.8509 5.4233 33.6712 5.59375 34.2962 5.93466C34.9212 6.26847 35.4077 6.65909 35.7557 7.10653C36.1108 7.55398 36.3842 7.94815 36.576 8.28906H36.8104V5.63636H39.9318V22.3622C39.9318 23.7685 39.6051 24.9226 38.9517 25.8246C38.2983 26.7266 37.4141 27.3942 36.299 27.8274C35.1911 28.2607 33.9411 28.4773 32.549 28.4773ZM32.517 19.1129C33.4332 19.1129 34.2074 18.8999 34.8395 18.4737C35.4787 18.0405 35.9616 17.4226 36.2884 16.62C36.6222 15.8104 36.7891 14.8409 36.7891 13.7116C36.7891 12.6108 36.6257 11.6413 36.299 10.8033C35.9723 9.9652 35.4929 9.31179 34.8608 8.84304C34.2287 8.36719 33.4474 8.12926 32.517 8.12926C31.5582 8.12926 30.7592 8.37784 30.12 8.875C29.4808 9.36506 28.9979 10.0327 28.6712 10.8778C28.3516 11.723 28.1918 12.6676 28.1918 13.7116C28.1918 14.7841 28.3551 15.7251 28.6818 16.5348C29.0085 17.3445 29.4915 17.9766 30.1307 18.4311C30.777 18.8857 31.5724 19.1129 32.517 19.1129ZM51.0966 22.3303C49.5625 22.3303 48.2237 21.9787 47.0803 21.2756C45.9368 20.5724 45.049 19.5888 44.4169 18.3246C43.7848 17.0604 43.4688 15.5831 43.4688 13.8928C43.4688 12.1953 43.7848 10.7109 44.4169 9.43963C45.049 8.16832 45.9368 7.18111 47.0803 6.47798C48.2237 5.77486 49.5625 5.4233 51.0966 5.4233C52.6307 5.4233 53.9695 5.77486 55.1129 6.47798C56.2564 7.18111 57.1442 8.16832 57.7763 9.43963C58.4084 10.7109 58.7244 12.1953 58.7244 13.8928C58.7244 15.5831 58.4084 17.0604 57.7763 18.3246C57.1442 19.5888 56.2564 20.5724 55.1129 21.2756C53.9695 21.9787 52.6307 22.3303 51.0966 22.3303ZM51.1072 19.6562C52.1016 19.6562 52.9254 19.3935 53.5788 18.8679C54.2322 18.3423 54.7152 17.6428 55.0277 16.7692C55.3473 15.8956 55.5071 14.9332 55.5071 13.8821C55.5071 12.8381 55.3473 11.8793 55.0277 11.0057C54.7152 10.125 54.2322 9.41832 53.5788 8.88565C52.9254 8.35298 52.1016 8.08665 51.1072 8.08665C50.1058 8.08665 49.2749 8.35298 48.6143 8.88565C47.9609 9.41832 47.4744 10.125 47.1548 11.0057C46.8423 11.8793 46.6861 12.8381 46.6861 13.8821C46.6861 14.9332 46.8423 15.8956 47.1548 16.7692C47.4744 17.6428 47.9609 18.3423 48.6143 18.8679C49.2749 19.3935 50.1058 19.6562 51.1072 19.6562Z" fill="white"/>
</svg>
