<svg width="80" height="80" viewBox="0 0 80 80" fill="none" xmlns="http://www.w3.org/2000/svg">
<circle cx="40" cy="40" r="39" fill="#F8F8F8" stroke="#F8F8F8" stroke-width="2"/>
<g clip-path="url(#clip0_82_434)">
<path fill-rule="evenodd" clip-rule="evenodd" d="M36.2965 32.3074C36.5074 32.1895 36.7654 32.195 36.9711 32.3216L48.5267 39.4327C48.7239 39.554 48.844 39.7689 48.844 40.0004C48.844 40.2319 48.7239 40.4469 48.5267 40.5682L36.9711 47.6793C36.7654 47.8059 36.5074 47.8113 36.2965 47.6935C36.0857 47.5757 35.9551 47.3531 35.9551 47.1115V32.8893C35.9551 32.6478 36.0857 32.4252 36.2965 32.3074ZM37.2884 34.0824V45.9185L46.9053 40.0004L37.2884 34.0824Z" fill="#131313"/>
<path d="M36.7012 47.0303V33.4546L47.8527 40.2425L36.7012 47.0303Z" fill="#131313"/>
</g>
<defs>
<clipPath id="clip0_82_434">
<rect width="21.3333" height="21.3333" fill="white" transform="translate(30.3994 29.3335)"/>
</clipPath>
</defs>
</svg>
